# xmcd
#
# Track frame offsets: 
#        150
#        56235
#        80535
#        120575
#        164342
#        195232
#        240852
#
# Disc length: 4023 seconds
#
# Revision: 1
# Processed by: cddbd v1.5.2PL0 Copyright (c) Steve Scherf et al.
# Submitted via: ExactAudioCopyFreeDBPlugin 1.0
#
DISCID=4e0fb507
DTITLE=The Hal Galper Quintet - Redux '78
DYEAR=1991
DGENRE=Jazz
TTITLE0=Introduction
TTITLE1=Triple Play
TTITLE2=My Man's Gone
TTITLE3=Another Jones
TTITLE4=I'll Never Stop Loving You
TTITLE5=Tune of the Unknown Samba
TTITLE6=This is the Thing
EXTD=
EXTT0=
EXTT1=
EXTT2=
EXTT3=
EXTT4=
EXTT5=
EXTT6=
PLAYORDER=
